<?xml version="1.0" encoding="UTF-8" standalone="no"?><svg xmlns="http://www.w3.org/2000/svg" xmlns:xlink="http://www.w3.org/1999/xlink" contentStyleType="text/css" height="369px" preserveAspectRatio="none" style="width:277px;height:369px;background:#FFFFFF;" version="1.1" viewBox="0 0 277 369" width="277px" zoomAndPan="magnify"><defs/><g><!--MD5=[335f4d9be48430461c68bf6d6fdba145]
class App--><g id="elem_App"><rect codeLine="4" fill="#F1F1F1" height="43.6094" id="App" rx="2.5" ry="2.5" style="stroke:#181818;stroke-width:0.5;" width="31" x="102" y="319"/><text fill="#000000" font-family="sans-serif" font-size="14" lengthAdjust="spacing" textLength="25" x="105" y="338.5332">App</text><line style="stroke:#181818;stroke-width:0.5;" x1="103" x2="132" y1="346.6094" y2="346.6094"/><line style="stroke:#181818;stroke-width:0.5;" x1="103" x2="132" y1="354.6094" y2="354.6094"/></g><!--MD5=[bb7f1c801adcc1c297b2d9190618259c]
class Tree--><g id="elem_Tree"><rect codeLine="5" fill="#F1F1F1" height="43.6094" id="Tree" rx="2.5" ry="2.5" style="stroke:#181818;stroke-width:0.5;" width="36" x="105.5" y="7"/><text fill="#000000" font-family="sans-serif" font-size="14" lengthAdjust="spacing" textLength="30" x="108.5" y="26.5332">Tree</text><line style="stroke:#181818;stroke-width:0.5;" x1="106.5" x2="140.5" y1="34.6094" y2="34.6094"/><line style="stroke:#181818;stroke-width:0.5;" x1="106.5" x2="140.5" y1="42.6094" y2="42.6094"/></g><!--MD5=[32a71447f05ffe56e42e41e15a000748]
class TreeToXml--><g id="elem_TreeToXml"><rect codeLine="6" fill="#F1F1F1" height="43.6094" id="TreeToXml" rx="2.5" ry="2.5" style="stroke:#181818;stroke-width:0.5;" width="75" x="182" y="111"/><text fill="#000000" font-family="sans-serif" font-size="14" lengthAdjust="spacing" textLength="69" x="185" y="130.5332">TreeToXml</text><line style="stroke:#181818;stroke-width:0.5;" x1="183" x2="256" y1="138.6094" y2="138.6094"/><line style="stroke:#181818;stroke-width:0.5;" x1="183" x2="256" y1="146.6094" y2="146.6094"/></g><!--MD5=[5497a3467eb99130277fd0d1ed8bd2ab]
class Analyst--><g id="elem_Analyst"><rect codeLine="7" fill="#F1F1F1" height="43.6094" id="Analyst" rx="2.5" ry="2.5" style="stroke:#181818;stroke-width:0.5;" width="52" x="91.5" y="215"/><text fill="#000000" font-family="sans-serif" font-size="14" lengthAdjust="spacing" textLength="46" x="94.5" y="234.5332">Analyst</text><line style="stroke:#181818;stroke-width:0.5;" x1="92.5" x2="142.5" y1="242.6094" y2="242.6094"/><line style="stroke:#181818;stroke-width:0.5;" x1="92.5" x2="142.5" y1="250.6094" y2="250.6094"/></g><!--MD5=[1974e33913fc8c6dbac5a25229563c4e]
class TreeManager--><g id="elem_TreeManager"><rect codeLine="8" fill="#F1F1F1" height="43.6094" id="TreeManager" rx="2.5" ry="2.5" style="stroke:#181818;stroke-width:0.5;" width="92" x="178.5" y="215"/><text fill="#000000" font-family="sans-serif" font-size="14" lengthAdjust="spacing" textLength="86" x="181.5" y="234.5332">TreeManager</text><line style="stroke:#181818;stroke-width:0.5;" x1="179.5" x2="269.5" y1="242.6094" y2="242.6094"/><line style="stroke:#181818;stroke-width:0.5;" x1="179.5" x2="269.5" y1="250.6094" y2="250.6094"/></g><!--MD5=[f862b15c48089d92b01e8efbfe6bbc52]
class Treeview--><g id="elem_Treeview"><rect codeLine="9" fill="#F1F1F1" height="43.6094" id="Treeview" rx="2.5" ry="2.5" style="stroke:#181818;stroke-width:0.5;" width="63" x="7" y="111"/><text fill="#000000" font-family="sans-serif" font-size="14" lengthAdjust="spacing" textLength="57" x="10" y="130.5332">Treeview</text><line style="stroke:#181818;stroke-width:0.5;" x1="8" x2="69" y1="138.6094" y2="138.6094"/><line style="stroke:#181818;stroke-width:0.5;" x1="8" x2="69" y1="146.6094" y2="146.6094"/></g><!--MD5=[45e58582d95cb8750573c15e58474b2f]
reverse link Tree to Treeview--><g id="link_Tree_Treeview"><path codeLine="12" d="M114.5,56.13 C114.5,56.13 114.5,141 114.5,141 C114.5,141 91.12,141 70.29,141 " fill="none" id="Tree-backto-Treeview" style="stroke:#181818;stroke-width:1.0;"/><polygon fill="#181818" points="114.5,51.13,110.5,60.13,114.5,56.13,118.5,60.13,114.5,51.13" style="stroke:#181818;stroke-width:1.0;"/></g><!--MD5=[a53d02deea133a4fb65aef25cebbba9d]
reverse link Tree to TreeToXml--><g id="link_Tree_TreeToXml"><path codeLine="13" d="M132.5,56.01 C132.5,56.01 132.5,126 132.5,126 C132.5,126 158.33,126 181.85,126 " fill="none" id="Tree-backto-TreeToXml" style="stroke:#181818;stroke-width:1.0;"/><polygon fill="#181818" points="132.5,51.01,128.5,60.01,132.5,56.01,136.5,60.01,132.5,51.01" style="stroke:#181818;stroke-width:1.0;"/></g><!--MD5=[badb1e5af32bd12cdc75aa97861a371d]
reverse link Tree to Analyst--><g id="link_Tree_Analyst"><path codeLine="14" d="M123.5,56.26 C123.5,56.26 123.5,214.9 123.5,214.9 " fill="none" id="Tree-backto-Analyst" style="stroke:#181818;stroke-width:1.0;"/><polygon fill="#181818" points="123.5,51.26,119.5,60.26,123.5,56.26,127.5,60.26,123.5,51.26" style="stroke:#181818;stroke-width:1.0;"/></g><!--MD5=[69d33296e27d47974564a241e487b498]
reverse link TreeToXml to TreeManager--><g id="link_TreeToXml_TreeManager"><path codeLine="16" d="M219.5,160.06 C219.5,160.06 219.5,214.98 219.5,214.98 " fill="none" id="TreeToXml-backto-TreeManager" style="stroke:#181818;stroke-width:1.0;"/><polygon fill="#181818" points="219.5,155.06,215.5,164.06,219.5,160.06,223.5,164.06,219.5,155.06" style="stroke:#181818;stroke-width:1.0;"/></g><!--MD5=[050e20f22e1ee6ad7c9864ddd5bb0429]
reverse link TreeManager to App--><g id="link_TreeManager_App"><path codeLine="17" d="M224.5,264.06 C224.5,264.06 224.5,341 224.5,341 C224.5,341 163.05,341 133.29,341 " fill="none" id="TreeManager-backto-App" style="stroke:#181818;stroke-width:1.0;"/><polygon fill="#181818" points="224.5,259.06,220.5,268.06,224.5,264.06,228.5,268.06,224.5,259.06" style="stroke:#181818;stroke-width:1.0;"/></g><!--MD5=[e755bafd090b30082d60f9c80f6de90f]
reverse link Analyst to App--><g id="link_Analyst_App"><path codeLine="18" d="M117.5,264.06 C117.5,264.06 117.5,318.98 117.5,318.98 " fill="none" id="Analyst-backto-App" style="stroke:#181818;stroke-width:1.0;"/><polygon fill="#181818" points="117.5,259.06,113.5,268.06,117.5,264.06,121.5,268.06,117.5,259.06" style="stroke:#181818;stroke-width:1.0;"/></g><!--MD5=[2f690d454470506214dec779f28477e9]
reverse link Treeview to App--><g id="link_Treeview_App"><path codeLine="19" d="M38.5,160.26 C38.5,160.26 38.5,341 38.5,341 C38.5,341 78.87,341 101.89,341 " fill="none" id="Treeview-backto-App" style="stroke:#181818;stroke-width:1.0;"/><polygon fill="#181818" points="38.5,155.26,34.5,164.26,38.5,160.26,42.5,164.26,38.5,155.26" style="stroke:#181818;stroke-width:1.0;"/></g><!--MD5=[ac8166a88930aedf558697cfc8816989]
@startuml app_class_diagram
skinparam Style strictuml
skinparam Linetype ortho
    
    class App
    class Tree
    class TreeToXml
    class Analyst
    class TreeManager
    class Treeview


    Treeview -up-> Tree
    TreeToXml -up-> Tree
    Analyst -up-> Tree

    TreeManager -up-> TreeToXml
    App -up-> TreeManager
    App -up-> Analyst
    App -up-> Treeview

@enduml

PlantUML version 1.2022.7(Mon Aug 22 19:01:30 CEST 2022)
(GPL source distribution)
Java Runtime: Java(TM) SE Runtime Environment
JVM: Java HotSpot(TM) 64-Bit Server VM
Default Encoding: Cp1250
Language: cs
Country: CZ
--></g></svg>