<?xml version="1.0" encoding="UTF-8" standalone="no"?><svg xmlns="http://www.w3.org/2000/svg" xmlns:xlink="http://www.w3.org/1999/xlink" contentStyleType="text/css" height="320px" preserveAspectRatio="none" style="width:273px;height:320px;background:#FFFFFF;" version="1.1" viewBox="0 0 273 320" width="273px" zoomAndPan="magnify"><defs/><g><!--MD5=[98da1495dceb49ef8766108e68dc3f3e]
class TWB--><g id="elem_TWB"><rect codeLine="5" fill="#F1F1F1" height="131.6563" id="TWB" rx="2.5" ry="2.5" style="stroke:#181818;stroke-width:0.5;" width="142" x="48.5" y="7"/><text fill="#000000" font-family="sans-serif" font-size="14" font-style="italic" font-weight="bold" lengthAdjust="spacing" textLength="136" x="51.5" y="26.5332">ThingWithBranches</text><line style="stroke:#181818;stroke-width:0.5;" x1="49.5" x2="189.5" y1="34.6094" y2="34.6094"/><text fill="#000000" font-family="sans-serif" font-size="14" lengthAdjust="spacing" textLength="89" x="54.5" y="53.1426">-branches: list</text><line style="stroke:#181818;stroke-width:0.5;" x1="49.5" x2="189.5" y1="60.2188" y2="60.2188"/><text fill="#000000" font-family="sans-serif" font-size="14" lengthAdjust="spacing" textLength="94" x="54.5" y="78.752">+add_branch()</text><text fill="#000000" font-family="sans-serif" font-size="14" lengthAdjust="spacing" textLength="104" x="54.5" y="96.3613">+move_branch()</text><text fill="#000000" font-family="sans-serif" font-size="14" lengthAdjust="spacing" textLength="117" x="54.5" y="113.9707">+remove_branch()</text><text fill="#000000" font-family="sans-serif" font-size="14" lengthAdjust="spacing" textLength="118" x="54.5" y="131.5801">+rename_branch()</text></g><!--MD5=[69c451c751c414e37549b782190fef46]
class B--><g id="elem_B"><rect codeLine="12" fill="#F1F1F1" height="96.4375" id="B" rx="2.5" ry="2.5" style="stroke:#181818;stroke-width:0.5;" width="79" x="24" y="199"/><text fill="#000000" font-family="sans-serif" font-size="14" font-weight="bold" lengthAdjust="spacing" textLength="50" x="38.5" y="218.5332">Branch</text><line style="stroke:#181818;stroke-width:0.5;" x1="25" x2="102" y1="226.6094" y2="226.6094"/><text fill="#000000" font-family="sans-serif" font-size="14" lengthAdjust="spacing" textLength="63" x="30" y="245.1426">+name:str</text><text fill="#000000" font-family="sans-serif" font-size="14" lengthAdjust="spacing" textLength="67" x="30" y="262.752">+weight:int</text><text fill="#000000" font-family="sans-serif" font-size="14" lengthAdjust="spacing" textLength="66" x="30" y="280.3613">+lenght:int</text><line style="stroke:#181818;stroke-width:0.5;" x1="25" x2="102" y1="287.4375" y2="287.4375"/></g><!--MD5=[56e4c9075fa7c9f4c09ef0a20c49f72c]
class T--><g id="elem_T"><rect codeLine="17" fill="#F1F1F1" height="43.6094" id="T" rx="2.5" ry="2.5" style="stroke:#181818;stroke-width:0.5;" width="38" x="156.5" y="225"/><text fill="#000000" font-family="sans-serif" font-size="14" font-weight="bold" lengthAdjust="spacing" textLength="32" x="159.5" y="244.5332">Tree</text><line style="stroke:#181818;stroke-width:0.5;" x1="157.5" x2="193.5" y1="252.6094" y2="252.6094"/><line style="stroke:#181818;stroke-width:0.5;" x1="157.5" x2="193.5" y1="260.6094" y2="260.6094"/></g><!--MD5=[b6976861199beea116508c65746882e4]
reverse link TWB to B--><g id="link_TWB_B"><path codeLine="18" d="M75.75,159.28 C75.75,159.28 75.75,198.76 75.75,198.76 " fill="none" id="TWB-backto-B" style="stroke:#181818;stroke-width:1.0;"/><polygon fill="none" points="68.75,159.28,75.75,139.28,82.75,159.28,68.75,159.28" style="stroke:#181818;stroke-width:1.0;"/></g><!--MD5=[8c2b7356995a8ddd442c12e24dd21580]
reverse link TWB to T--><g id="link_TWB_T"><path codeLine="19" d="M173.5,159.28 C173.5,159.28 173.5,224.66 173.5,224.66 " fill="none" id="TWB-backto-T" style="stroke:#181818;stroke-width:1.0;"/><polygon fill="none" points="166.5,159.28,173.5,139.28,180.5,159.28,166.5,159.28" style="stroke:#181818;stroke-width:1.0;"/></g><!--MD5=[f67076b2167084e26ced88223ee11e45]
reverse link B to T--><g id="link_B_T"><path codeLine="20" d="M116.3,247 C116.3,247 156.23,247 156.23,247 " fill="none" id="B-backto-T" style="stroke:#181818;stroke-width:1.0;"/><polygon fill="none" points="103.3,247,109.3,251,115.3,247,109.3,243,103.3,247" style="stroke:#181818;stroke-width:1.0;"/><text fill="#000000" font-family="sans-serif" font-size="13" lengthAdjust="spacing" textLength="20" x="114.9081" y="243.3138">0..*</text></g><!--MD5=[b94a7fb5fca9d1be12af6a04609884f3]
reverse link B to B--><g id="link_B_B"><path codeLine="21" d="M36.25,185.93 C36.25,185.93 36.25,169 36.25,169 C36.25,169 6,169 6,169 C6,169 6,313 6,313 C6,313 63.5,313 63.5,313 C63.5,313 63.5,305.38 63.5,295.31 " fill="none" id="B-backto-B" style="stroke:#181818;stroke-width:1.0;"/><polygon fill="none" points="36.25,198.93,40.25,192.93,36.25,186.93,32.25,192.93,36.25,198.93" style="stroke:#181818;stroke-width:1.0;"/><text fill="#000000" font-family="sans-serif" font-size="13" lengthAdjust="spacing" textLength="20" x="10.7789" y="188.1835">0..*</text></g><!--MD5=[8ba3cba11b051d8168eb20b267aed811]
@startuml class_diagram
    skinparam ClassAttributeIconSize 0
    skinparam style strictuml
    skinparam linetype ortho

    abstract "**ThingWithBranches**" as TWB {
        - branches: list
        + add_branch()
        + move_branch()
        + remove_branch()
        + rename_branch()
    }
    class "**Branch**" as B {
        +name:str
        +weight:int
        +lenght:int
    }
    class "**Tree**" as T {}
    TWB <|- - B 
    TWB <|- - T 
    T -left-o " 0..*" B : \t\t\t\t
    B -up-o "0..*" B
@enduml

PlantUML version 1.2022.7(Mon Aug 22 19:01:30 CEST 2022)
(GPL source distribution)
Java Runtime: Java(TM) SE Runtime Environment
JVM: Java HotSpot(TM) 64-Bit Server VM
Default Encoding: Cp1250
Language: cs
Country: CZ
--></g></svg>