<?xml version="1.0" encoding="UTF-8" standalone="no"?><svg xmlns="http://www.w3.org/2000/svg" xmlns:xlink="http://www.w3.org/1999/xlink" contentStyleType="text/css" height="458px" preserveAspectRatio="none" style="width:701px;height:458px;background:#FFFFFF;" version="1.1" viewBox="0 0 701 458" width="701px" zoomAndPan="magnify"><defs/><g><!--MD5=[98da1495dceb49ef8766108e68dc3f3e]
class TWB--><g id="elem_TWB"><rect codeLine="5" fill="#F1F1F1" height="131.6563" id="TWB" rx="2.5" ry="2.5" style="stroke:#181818;stroke-width:0.5;" width="142" x="170" y="7"/><text fill="#000000" font-family="sans-serif" font-size="14" font-style="italic" font-weight="bold" lengthAdjust="spacing" textLength="136" x="173" y="26.5332">ThingWithBranches</text><line style="stroke:#181818;stroke-width:0.5;" x1="171" x2="311" y1="34.6094" y2="34.6094"/><text fill="#000000" font-family="sans-serif" font-size="14" lengthAdjust="spacing" textLength="93" x="176" y="53.1426">-branches : list</text><line style="stroke:#181818;stroke-width:0.5;" x1="171" x2="311" y1="60.2188" y2="60.2188"/><text fill="#000000" font-family="sans-serif" font-size="14" lengthAdjust="spacing" textLength="94" x="176" y="78.752">+add_branch()</text><text fill="#000000" font-family="sans-serif" font-size="14" lengthAdjust="spacing" textLength="104" x="176" y="96.3613">+move_branch()</text><text fill="#000000" font-family="sans-serif" font-size="14" lengthAdjust="spacing" textLength="117" x="176" y="113.9707">+remove_branch()</text><text fill="#000000" font-family="sans-serif" font-size="14" lengthAdjust="spacing" textLength="118" x="176" y="131.5801">+rename_branch()</text></g><!--MD5=[6d7d587a021629470fd0d5f8ef3407c9]
class Branch--><g id="elem_Branch"><rect codeLine="12" fill="#F1F1F1" height="61.2188" id="Branch" rx="2.5" ry="2.5" style="stroke:#181818;stroke-width:0.5;" width="152" x="230" y="199"/><text fill="#000000" font-family="sans-serif" font-size="14" font-weight="bold" lengthAdjust="spacing" textLength="50" x="281" y="218.5332">Branch</text><line style="stroke:#181818;stroke-width:0.5;" x1="231" x2="381" y1="226.6094" y2="226.6094"/><text fill="#000000" font-family="sans-serif" font-size="14" lengthAdjust="spacing" textLength="140" x="236" y="245.1426">+attributes : dictionary</text><line style="stroke:#181818;stroke-width:0.5;" x1="231" x2="381" y1="252.2188" y2="252.2188"/></g><!--MD5=[bb7f1c801adcc1c297b2d9190618259c]
class Tree--><g id="elem_Tree"><rect codeLine="15" fill="#F1F1F1" height="43.6094" id="Tree" rx="2.5" ry="2.5" style="stroke:#181818;stroke-width:0.5;" width="38" x="287" y="364"/><text fill="#000000" font-family="sans-serif" font-size="14" font-weight="bold" lengthAdjust="spacing" textLength="32" x="290" y="383.5332">Tree</text><line style="stroke:#181818;stroke-width:0.5;" x1="288" x2="324" y1="391.6094" y2="391.6094"/><line style="stroke:#181818;stroke-width:0.5;" x1="288" x2="324" y1="399.6094" y2="399.6094"/></g><!--MD5=[1974e33913fc8c6dbac5a25229563c4e]
class TreeManager--><g id="elem_TreeManager"><rect codeLine="22" fill="#F1F1F1" height="131.6563" id="TreeManager" rx="2.5" ry="2.5" style="stroke:#181818;stroke-width:0.5;" width="110" x="378" y="320"/><text fill="#000000" font-family="sans-serif" font-size="14" font-weight="bold" lengthAdjust="spacing" textLength="94" x="386" y="339.5332">TreeManager</text><line style="stroke:#181818;stroke-width:0.5;" x1="379" x2="487" y1="347.6094" y2="347.6094"/><text fill="#000000" font-family="sans-serif" font-size="14" lengthAdjust="spacing" textLength="69" x="384" y="366.1426">#trees : list</text><line style="stroke:#181818;stroke-width:0.5;" x1="379" x2="487" y1="373.2188" y2="373.2188"/><text fill="#000000" font-family="sans-serif" font-size="14" lengthAdjust="spacing" textLength="73" x="384" y="391.752">+load_xml()</text><text fill="#000000" font-family="sans-serif" font-size="14" lengthAdjust="spacing" textLength="76" x="384" y="409.3613">+save_xml()</text><text fill="#000000" font-family="sans-serif" font-size="14" lengthAdjust="spacing" textLength="91" x="384" y="426.9707">+create_tree()</text><text fill="#000000" font-family="sans-serif" font-size="14" lengthAdjust="spacing" textLength="98" x="384" y="444.5801">+destroy_tree()</text></g><!--MD5=[bc1078c733d9e05385109c4551a90a70]
class TreeApp--><g id="elem_TreeApp"><rect codeLine="30" fill="#F1F1F1" height="43.6094" id="TreeApp" rx="2.5" ry="2.5" style="stroke:#181818;stroke-width:0.5;" width="65" x="523.5" y="364"/><text fill="#000000" font-family="sans-serif" font-size="14" font-weight="bold" lengthAdjust="spacing" textLength="59" x="526.5" y="383.5332">TreeApp</text><line style="stroke:#181818;stroke-width:0.5;" x1="524.5" x2="587.5" y1="391.6094" y2="391.6094"/><line style="stroke:#181818;stroke-width:0.5;" x1="524.5" x2="587.5" y1="399.6094" y2="399.6094"/></g><!--MD5=[f862b15c48089d92b01e8efbfe6bbc52]
class Treeview--><g id="elem_Treeview"><rect codeLine="31" fill="#F1F1F1" height="43.6094" id="Treeview" rx="2.5" ry="2.5" style="stroke:#181818;stroke-width:0.5;" width="71" x="623.5" y="364"/><text fill="#000000" font-family="sans-serif" font-size="14" font-weight="bold" lengthAdjust="spacing" textLength="65" x="626.5" y="383.5332">Treeview</text><line style="stroke:#181818;stroke-width:0.5;" x1="624.5" x2="693.5" y1="391.6094" y2="391.6094"/><line style="stroke:#181818;stroke-width:0.5;" x1="624.5" x2="693.5" y1="399.6094" y2="399.6094"/></g><!--MD5=[662f6980b00ef59b3b1e186e54f12ba9]
class Xml--><g id="elem_Xml"><rect codeLine="36" fill="#F1F1F1" height="43.6094" id="Xml" rx="2.5" ry="2.5" style="stroke:#181818;stroke-width:0.5;" width="31" x="435.5" y="207.5"/><text fill="#000000" font-family="sans-serif" font-size="14" font-weight="bold" lengthAdjust="spacing" textLength="25" x="438.5" y="227.0332">Xml</text><line style="stroke:#181818;stroke-width:0.5;" x1="436.5" x2="465.5" y1="235.1094" y2="235.1094"/><line style="stroke:#181818;stroke-width:0.5;" x1="436.5" x2="465.5" y1="243.1094" y2="243.1094"/></g><!--MD5=[2d91dc669d58b97f19f91c850fde284f]
reverse link TWB to Branch--><g id="link_TWB_Branch"><path codeLine="17" d="M271,159.37 C271,159.37 271,198.8 271,198.8 " fill="none" id="TWB-backto-Branch" style="stroke:#181818;stroke-width:1.0;"/><polygon fill="none" points="264,159.37,271,139.37,278,159.37,264,159.37" style="stroke:#181818;stroke-width:1.0;"/></g><!--MD5=[af657e1c0eaeb6857cbf265f4139490f]
reverse link TWB to Tree--><g id="link_TWB_Tree"><path codeLine="18" d="M200,159.38 C200,159.38 200,386 200,386 C200,386 255.96,386 286.56,386 " fill="none" id="TWB-backto-Tree" style="stroke:#181818;stroke-width:1.0;"/><polygon fill="none" points="193,159.38,200,139.38,207,159.38,193,159.38" style="stroke:#181818;stroke-width:1.0;"/></g><!--MD5=[3b5f2e54e512219fea59c1561577373d]
reverse link Branch to Tree--><g id="link_Branch_Tree"><path codeLine="19" d="M306,273.05 C306,273.05 306,363.63 306,363.63 " fill="none" id="Branch-backto-Tree" style="stroke:#181818;stroke-width:1.0;"/><polygon fill="none" points="306,260.05,302,266.05,306,272.05,310,266.05,306,260.05" style="stroke:#181818;stroke-width:1.0;"/><text fill="#000000" font-family="sans-serif" font-size="13" lengthAdjust="spacing" textLength="20" x="283.525" y="281.5098">0..*</text></g><!--MD5=[fbc38ff93b7b597288d1ebe0e21b1c5a]
link Branch to Branch--><g id="link_Branch_Branch"><path codeLine="20" d="M347,198.9 C347,183.89 347,169 347,169 C347,169 408.75,169 408.75,169 C408.75,169 408.75,290 408.75,290 C408.75,290 351.5,290 351.5,290 C351.5,290 351.5,273.1 351.5,273.1 " fill="none" id="Branch-to-Branch" style="stroke:#181818;stroke-width:1.0;"/><polygon fill="none" points="351.5,260.1,347.5,266.1,351.5,272.1,355.5,266.1,351.5,260.1" style="stroke:#181818;stroke-width:1.0;"/><text fill="#000000" font-family="sans-serif" font-size="13" lengthAdjust="spacing" textLength="20" x="338.8219" y="281.5701">0..*</text></g><!--MD5=[e0acad60854604a49ddd3b772d70f594]
reverse link Tree to TreeManager--><g id="link_Tree_TreeManager"><path codeLine="33" d="M330.01,386 C330.01,386 377.83,386 377.83,386 " fill="none" id="Tree-backto-TreeManager" style="stroke:#181818;stroke-width:1.0;"/><polygon fill="#181818" points="325.01,386,334.01,390,330.01,386,334.01,382,325.01,386" style="stroke:#181818;stroke-width:1.0;"/></g><!--MD5=[d35c5aa96aad293efe60ff2584882e0f]
link TreeApp to Treeview--><g id="link_TreeApp_Treeview"><path codeLine="34" d="M588.59,386 C588.59,386 618.41,386 618.41,386 " fill="none" id="TreeApp-to-Treeview" style="stroke:#181818;stroke-width:1.0;"/><polygon fill="#181818" points="623.41,386,614.41,382,618.41,386,614.41,390,623.41,386" style="stroke:#181818;stroke-width:1.0;"/></g><!--MD5=[ab772590e519907b6908620a761704d4]
reverse link TreeManager to TreeApp--><g id="link_TreeManager_TreeApp"><path codeLine="38" d="M493.02,386 C493.02,386 523.24,386 523.24,386 " fill="none" id="TreeManager-backto-TreeApp" style="stroke:#181818;stroke-width:1.0;"/><polygon fill="#181818" points="488.02,386,497.02,390,493.02,386,497.02,382,488.02,386" style="stroke:#181818;stroke-width:1.0;"/></g><!--MD5=[b4ecb84edf84789ec0f7ac62af6c1702]
reverse link Xml to TreeManager--><g id="link_Xml_TreeManager"><path codeLine="39" d="M451,256.59 C451,256.59 451,319.69 451,319.69 " fill="none" id="Xml-backto-TreeManager" style="stroke:#181818;stroke-width:1.0;"/><polygon fill="#181818" points="451,251.59,447,260.59,451,256.59,455,260.59,451,251.59" style="stroke:#181818;stroke-width:1.0;"/></g><!--MD5=[5dd3babfe3aa39e575923b1881831200]
@startuml class_diagram
    skinparam ClassAttributeIconSize 0
    skinparam style strictuml
    skinparam linetype ortho

    abstract "**ThingWithBranches**" as TWB {
        - branches : list
        + add_branch()
        + move_branch()
        + remove_branch()
        + rename_branch()
    }
    class "**Branch**" as Branch {
        +attributes : dictionary
    }
    class "**Tree**" as Tree {}

    TWB <|- - Branch 
    TWB <|- - - Tree : \t\t\t\t\t\t
    Tree -left-o " 0..*" Branch  : \t\t\t\t\t
    Branch -down-o "0..*" Branch

    class "**TreeManager**" as TreeManager {
        # trees : list
        + load_xml()
        + save_xml()
        + create_tree()
        + destroy_tree()
    }

    class "**TreeApp**" as TreeApp {}
    class "**Treeview**" as Treeview {}

    TreeManager -left-> Tree
    TreeApp -right-> Treeview

    class "**Xml**" as Xml {}

    TreeManager <-right-TreeApp
    Xml <- - TreeManager
    

@enduml

PlantUML version 1.2022.7(Mon Aug 22 19:01:30 CEST 2022)
(GPL source distribution)
Java Runtime: Java(TM) SE Runtime Environment
JVM: Java HotSpot(TM) 64-Bit Server VM
Default Encoding: Cp1250
Language: cs
Country: CZ
--></g></svg>