<?xml version="1.0" encoding="UTF-8" standalone="no"?><svg xmlns="http://www.w3.org/2000/svg" xmlns:xlink="http://www.w3.org/1999/xlink" contentStyleType="text/css" height="458px" preserveAspectRatio="none" style="width:805px;height:458px;background:#FFFFFF;" version="1.1" viewBox="0 0 805 458" width="805px" zoomAndPan="magnify"><defs/><g><!--MD5=[98da1495dceb49ef8766108e68dc3f3e]
class TWB--><g id="elem_TWB"><rect codeLine="5" fill="#F1F1F1" height="131.6563" id="TWB" rx="2.5" ry="2.5" style="stroke:#181818;stroke-width:0.5;" width="142" x="165.5" y="7"/><text fill="#000000" font-family="sans-serif" font-size="14" font-style="italic" font-weight="bold" lengthAdjust="spacing" textLength="136" x="168.5" y="26.5332">ThingWithBranches</text><line style="stroke:#181818;stroke-width:0.5;" x1="166.5" x2="306.5" y1="34.6094" y2="34.6094"/><text fill="#000000" font-family="sans-serif" font-size="14" lengthAdjust="spacing" textLength="93" x="171.5" y="53.1426">-branches : list</text><line style="stroke:#181818;stroke-width:0.5;" x1="166.5" x2="306.5" y1="60.2188" y2="60.2188"/><text fill="#000000" font-family="sans-serif" font-size="14" lengthAdjust="spacing" textLength="94" x="171.5" y="78.752">+add_branch()</text><text fill="#000000" font-family="sans-serif" font-size="14" lengthAdjust="spacing" textLength="104" x="171.5" y="96.3613">+move_branch()</text><text fill="#000000" font-family="sans-serif" font-size="14" lengthAdjust="spacing" textLength="117" x="171.5" y="113.9707">+remove_branch()</text><text fill="#000000" font-family="sans-serif" font-size="14" lengthAdjust="spacing" textLength="118" x="171.5" y="131.5801">+rename_branch()</text></g><!--MD5=[69c451c751c414e37549b782190fef46]
class B--><g id="elem_B"><rect codeLine="12" fill="#F1F1F1" height="96.4375" id="B" rx="2.5" ry="2.5" style="stroke:#181818;stroke-width:0.5;" width="116" x="234.5" y="199"/><text fill="#000000" font-family="sans-serif" font-size="14" font-weight="bold" lengthAdjust="spacing" textLength="50" x="267.5" y="218.5332">Branch</text><line style="stroke:#181818;stroke-width:0.5;" x1="235.5" x2="349.5" y1="226.6094" y2="226.6094"/><text fill="#000000" font-family="sans-serif" font-size="14" lengthAdjust="spacing" textLength="90" x="240.5" y="245.1426">+name : string</text><text fill="#000000" font-family="sans-serif" font-size="14" lengthAdjust="spacing" textLength="104" x="240.5" y="262.752">+weight : integer</text><text fill="#000000" font-family="sans-serif" font-size="14" lengthAdjust="spacing" textLength="103" x="240.5" y="280.3613">+lenght : integer</text><line style="stroke:#181818;stroke-width:0.5;" x1="235.5" x2="349.5" y1="287.4375" y2="287.4375"/></g><!--MD5=[56e4c9075fa7c9f4c09ef0a20c49f72c]
class T--><g id="elem_T"><rect codeLine="17" fill="#F1F1F1" height="43.6094" id="T" rx="2.5" ry="2.5" style="stroke:#181818;stroke-width:0.5;" width="38" x="273.5" y="381"/><text fill="#000000" font-family="sans-serif" font-size="14" font-weight="bold" lengthAdjust="spacing" textLength="32" x="276.5" y="400.5332">Tree</text><line style="stroke:#181818;stroke-width:0.5;" x1="274.5" x2="310.5" y1="408.6094" y2="408.6094"/><line style="stroke:#181818;stroke-width:0.5;" x1="274.5" x2="310.5" y1="416.6094" y2="416.6094"/></g><!--MD5=[292877cb3c42981a28a8c6df229c9218]
class TAPP--><g id="elem_TAPP"><rect codeLine="24" fill="#F1F1F1" height="96.4375" id="TAPP" rx="2.5" ry="2.5" style="stroke:#181818;stroke-width:0.5;" width="110" x="371.5" y="355"/><text fill="#000000" font-family="sans-serif" font-size="14" font-weight="bold" lengthAdjust="spacing" textLength="59" x="397" y="374.5332">TreeApp</text><line style="stroke:#181818;stroke-width:0.5;" x1="372.5" x2="480.5" y1="382.6094" y2="382.6094"/><text fill="#000000" font-family="sans-serif" font-size="14" lengthAdjust="spacing" textLength="69" x="377.5" y="401.1426">#trees : list</text><line style="stroke:#181818;stroke-width:0.5;" x1="372.5" x2="480.5" y1="408.2188" y2="408.2188"/><text fill="#000000" font-family="sans-serif" font-size="14" lengthAdjust="spacing" textLength="91" x="377.5" y="426.752">+create_tree()</text><text fill="#000000" font-family="sans-serif" font-size="14" lengthAdjust="spacing" textLength="98" x="377.5" y="444.3613">+destroy_tree()</text></g><!--MD5=[b45920989d7fe2b505aa23ac7405965e]
class Disp--><g id="elem_Disp"><rect codeLine="29" fill="#F1F1F1" height="61.2188" id="Disp" rx="2.5" ry="2.5" style="stroke:#181818;stroke-width:0.5;" width="175" x="517" y="372.5"/><text fill="#000000" font-family="sans-serif" font-size="14" font-weight="bold" lengthAdjust="spacing" textLength="65" x="572" y="392.0332">Displayer</text><line style="stroke:#181818;stroke-width:0.5;" x1="518" x2="691" y1="400.1094" y2="400.1094"/><line style="stroke:#181818;stroke-width:0.5;" x1="518" x2="691" y1="408.1094" y2="408.1094"/><text fill="#000000" font-family="sans-serif" font-size="14" lengthAdjust="spacing" textLength="163" x="523" y="426.6426">+update_displayed_tree()</text></g><!--MD5=[36f14c74d528e8675abff77142f07949]
class **Treeview**--><g id="elem_**Treeview**"><rect fill="#F1F1F1" height="43.6094" id="**Treeview**" rx="2.5" ry="2.5" style="stroke:#181818;stroke-width:0.5;" width="71" x="727" y="381"/><text fill="#000000" font-family="sans-serif" font-size="14" font-weight="bold" lengthAdjust="spacing" textLength="65" x="730" y="400.5332">Treeview</text><line style="stroke:#181818;stroke-width:0.5;" x1="728" x2="797" y1="408.6094" y2="408.6094"/><line style="stroke:#181818;stroke-width:0.5;" x1="728" x2="797" y1="416.6094" y2="416.6094"/></g><!--MD5=[c75e629d71444dd998043aef5ce1a035]
class R--><g id="elem_R"><rect codeLine="37" fill="#F1F1F1" height="78.8281" id="R" rx="2.5" ry="2.5" style="stroke:#181818;stroke-width:0.5;" width="96" x="403.5" y="207.5"/><text fill="#000000" font-family="sans-serif" font-size="14" font-weight="bold" lengthAdjust="spacing" textLength="87" x="408" y="227.0332">XmlManager</text><line style="stroke:#181818;stroke-width:0.5;" x1="404.5" x2="498.5" y1="235.1094" y2="235.1094"/><line style="stroke:#181818;stroke-width:0.5;" x1="404.5" x2="498.5" y1="243.1094" y2="243.1094"/><text fill="#000000" font-family="sans-serif" font-size="14" lengthAdjust="spacing" textLength="81" x="409.5" y="261.6426">+load_data()</text><text fill="#000000" font-family="sans-serif" font-size="14" lengthAdjust="spacing" textLength="84" x="409.5" y="279.252">+save_data()</text></g><!--MD5=[b6976861199beea116508c65746882e4]
reverse link TWB to B--><g id="link_TWB_B"><path codeLine="19" d="M271,159.28 C271,159.28 271,198.76 271,198.76 " fill="none" id="TWB-backto-B" style="stroke:#181818;stroke-width:1.0;"/><polygon fill="none" points="264,159.28,271,139.28,278,159.28,264,159.28" style="stroke:#181818;stroke-width:1.0;"/></g><!--MD5=[8c2b7356995a8ddd442c12e24dd21580]
reverse link TWB to T--><g id="link_TWB_T"><path codeLine="20" d="M200,159.38 C200,159.38 200,403 200,403 C200,403 246.24,403 273.33,403 " fill="none" id="TWB-backto-T" style="stroke:#181818;stroke-width:1.0;"/><polygon fill="none" points="193,159.38,200,139.38,207,159.38,193,159.38" style="stroke:#181818;stroke-width:1.0;"/></g><!--MD5=[f67076b2167084e26ced88223ee11e45]
reverse link B to T--><g id="link_B_T"><path codeLine="21" d="M292.5,308.08 C292.5,308.08 292.5,380.94 292.5,380.94 " fill="none" id="B-backto-T" style="stroke:#181818;stroke-width:1.0;"/><polygon fill="none" points="292.5,295.08,288.5,301.08,292.5,307.08,296.5,301.08,292.5,295.08" style="stroke:#181818;stroke-width:1.0;"/><text fill="#000000" font-family="sans-serif" font-size="13" lengthAdjust="spacing" textLength="20" x="270.7375" y="316.8056">0..*</text></g><!--MD5=[b94a7fb5fca9d1be12af6a04609884f3]
reverse link B to B--><g id="link_B_B"><path codeLine="22" d="M329,185.93 C329,185.93 329,169 329,169 C329,169 361,169 361,169 C361,169 361,325 361,325 C361,325 331,325 331,325 C331,325 331,311.12 331,295.07 " fill="none" id="B-backto-B" style="stroke:#181818;stroke-width:1.0;"/><polygon fill="none" points="329,198.93,333,192.93,329,186.93,325,192.93,329,198.93" style="stroke:#181818;stroke-width:1.0;"/><text fill="#000000" font-family="sans-serif" font-size="13" lengthAdjust="spacing" textLength="20" x="312.8922" y="188.1835">0..*</text></g><!--MD5=[c8b58f7028a8f1d0a7ae7d38c9f1ca03]
reverse link T to TAPP--><g id="link_T_TAPP"><path codeLine="33" d="M316.7,403 C316.7,403 371.43,403 371.43,403 " fill="none" id="T-backto-TAPP" style="stroke:#181818;stroke-width:1.0;"/><polygon fill="#181818" points="311.7,403,320.7,407,316.7,403,320.7,399,311.7,403" style="stroke:#181818;stroke-width:1.0;"/></g><!--MD5=[548d8499b8394cbf2b7b753c31461d9b]
link TAPP to Disp--><g id="link_TAPP_Disp"><path codeLine="34" d="M481.84,403 C481.84,403 511.83,403 511.83,403 " fill="none" id="TAPP-to-Disp" style="stroke:#181818;stroke-width:1.0;"/><polygon fill="#181818" points="516.83,403,507.83,399,511.83,403,507.83,407,516.83,403" style="stroke:#181818;stroke-width:1.0;"/></g><!--MD5=[2c4a0ed2e22933505bad03a3b9962e93]
link Disp to **Treeview**--><g id="link_Disp_**Treeview**"><path codeLine="35" d="M692.28,403 C692.28,403 721.89,403 721.89,403 " fill="none" id="Disp-to-**Treeview**" style="stroke:#181818;stroke-width:1.0;"/><polygon fill="#181818" points="726.89,403,717.89,399,721.89,403,717.89,407,726.89,403" style="stroke:#181818;stroke-width:1.0;"/></g><!--MD5=[54d4c7832b47c7bef32047afd77d2392]
reverse link R to TAPP--><g id="link_R_TAPP"><path codeLine="42" d="M442.5,291.77 C442.5,291.77 442.5,354.96 442.5,354.96 " fill="none" id="R-backto-TAPP" style="stroke:#181818;stroke-width:1.0;"/><polygon fill="#181818" points="442.5,286.77,438.5,295.77,442.5,291.77,446.5,295.77,442.5,286.77" style="stroke:#181818;stroke-width:1.0;"/></g><!--MD5=[139918882cef9597a57cd7180461cdb4]
@startuml class_diagram
    skinparam ClassAttributeIconSize 0
    skinparam style strictuml
    skinparam linetype ortho

    abstract "**ThingWithBranches**" as TWB {
        - branches : list
        + add_branch()
        + move_branch()
        + remove_branch()
        + rename_branch()
    }
    class "**Branch**" as B {
        +name : string
        +weight : integer
        +lenght : integer
    }
    class "**Tree**" as T {}

    TWB <|- - B 
    TWB <|- - - T : \t\t\t\t\t\t
    T -left-o " 0..*" B : \t\t\t\t
    B -up-o "0..*" B

    class "**TreeApp**" as TAPP {
        # trees : list
        + create_tree()
        + destroy_tree()
    }
    class "**Displayer**" as Disp {
        + update_displayed_tree()
    }

    TAPP -left-> T
    TAPP -right-> Disp
    Disp -right-> "**Treeview**"

    class "**XmlManager**" as R {
        + load_data()
        + save_data()
    }

    R <- - TAPP
    

@enduml

PlantUML version 1.2022.7(Mon Aug 22 19:01:30 CEST 2022)
(GPL source distribution)
Java Runtime: Java(TM) SE Runtime Environment
JVM: Java HotSpot(TM) 64-Bit Server VM
Default Encoding: Cp1250
Language: cs
Country: CZ
--></g></svg>