<?xml version="1.0" encoding="UTF-8" standalone="no"?><svg xmlns="http://www.w3.org/2000/svg" xmlns:xlink="http://www.w3.org/1999/xlink" contentStyleType="text/css" height="107px" preserveAspectRatio="none" style="width:806px;height:107px;background:#FFFFFF;" version="1.1" viewBox="0 0 806 107" width="806px" zoomAndPan="magnify"><defs/><g><!--MD5=[f66eb5cd0a27e450a5267fbcb4094f6d]
class TD--><g id="elem_TD"><rect codeLine="5" fill="#F1F1F1" height="58.7031" id="TD" rx="2.5" ry="2.5" style="stroke:#181818;stroke-width:0.5;" width="77" x="7" y="24.5"/><text fill="#000000" font-family="sans-serif" font-size="12" font-style="italic" lengthAdjust="spacing" textLength="37" x="27" y="41.957">«type»</text><text fill="#000000" font-family="sans-serif" font-size="14" lengthAdjust="spacing" textLength="4" x="10" y="59.127"> </text><text fill="#000000" font-family="sans-serif" font-size="14" font-weight="bold" lengthAdjust="spacing" textLength="63" x="14" y="59.127">TreeData</text><text fill="#000000" font-family="sans-serif" font-size="14" lengthAdjust="spacing" textLength="4" x="77" y="59.127"> </text><line style="stroke:#181818;stroke-width:0.5;" x1="8" x2="83" y1="67.2031" y2="67.2031"/><line style="stroke:#181818;stroke-width:0.5;" x1="8" x2="83" y1="75.2031" y2="75.2031"/></g><!--MD5=[c75e629d71444dd998043aef5ce1a035]
class R--><g id="elem_R"><rect codeLine="9" fill="#F1F1F1" height="58.7031" id="R" rx="2.5" ry="2.5" style="stroke:#181818;stroke-width:0.5;" width="65" x="166" y="24.5"/><text fill="#000000" font-family="sans-serif" font-size="12" font-style="italic" lengthAdjust="spacing" textLength="37" x="180" y="41.957">«type»</text><text fill="#000000" font-family="sans-serif" font-size="14" lengthAdjust="spacing" textLength="4" x="169" y="59.127"> </text><text fill="#000000" font-family="sans-serif" font-size="14" font-weight="bold" lengthAdjust="spacing" textLength="51" x="173" y="59.127">Reader</text><text fill="#000000" font-family="sans-serif" font-size="14" lengthAdjust="spacing" textLength="4" x="224" y="59.127"> </text><line style="stroke:#181818;stroke-width:0.5;" x1="167" x2="230" y1="67.2031" y2="67.2031"/><line style="stroke:#181818;stroke-width:0.5;" x1="167" x2="230" y1="75.2031" y2="75.2031"/></g><!--MD5=[69b356fec5e4f53d7535011b6fc9d60b]
class D--><g id="elem_D"><rect codeLine="13" fill="#F1F1F1" height="58.7031" id="D" rx="2.5" ry="2.5" style="stroke:#181818;stroke-width:0.5;" width="71" x="561" y="24.5"/><text fill="#000000" font-family="sans-serif" font-size="12" font-style="italic" lengthAdjust="spacing" textLength="37" x="578" y="41.957">«type»</text><text fill="#000000" font-family="sans-serif" font-size="14" font-weight="bold" lengthAdjust="spacing" textLength="65" x="564" y="59.127">Displayer</text><line style="stroke:#181818;stroke-width:0.5;" x1="562" x2="631" y1="67.2031" y2="67.2031"/><line style="stroke:#181818;stroke-width:0.5;" x1="562" x2="631" y1="75.2031" y2="75.2031"/></g><!--MD5=[56e4c9075fa7c9f4c09ef0a20c49f72c]
class T--><g id="elem_T"><rect codeLine="17" fill="#F1F1F1" height="93.9219" id="T" rx="2.5" ry="2.5" style="stroke:#181818;stroke-width:0.5;" width="96" x="369.5" y="7"/><text fill="#000000" font-family="sans-serif" font-size="12" font-style="italic" lengthAdjust="spacing" textLength="37" x="399" y="24.457">«type»</text><text fill="#000000" font-family="sans-serif" font-size="14" font-weight="bold" lengthAdjust="spacing" textLength="32" x="401.5" y="41.627">Tree</text><line style="stroke:#181818;stroke-width:0.5;" x1="370.5" x2="464.5" y1="49.7031" y2="49.7031"/><line style="stroke:#181818;stroke-width:0.5;" x1="370.5" x2="464.5" y1="57.7031" y2="57.7031"/><text fill="#000000" font-family="sans-serif" font-size="14" lengthAdjust="spacing" textLength="80" x="375.5" y="76.2363">+LoadData()</text><text fill="#000000" font-family="sans-serif" font-size="14" lengthAdjust="spacing" textLength="84" x="375.5" y="93.8457">+CloseData()</text></g><!--MD5=[9022e2192881f166c529fc3ae75dec7b]
class TV--><g id="elem_TV"><rect codeLine="22" fill="#F1F1F1" height="58.7031" id="TV" rx="2.5" ry="2.5" style="stroke:#181818;stroke-width:0.5;" width="71" x="728" y="24.5"/><text fill="#000000" font-family="sans-serif" font-size="12" font-style="italic" lengthAdjust="spacing" textLength="37" x="745" y="41.957">«type»</text><text fill="#000000" font-family="sans-serif" font-size="14" font-weight="bold" lengthAdjust="spacing" textLength="65" x="731" y="59.127">TreeView</text><line style="stroke:#181818;stroke-width:0.5;" x1="729" x2="798" y1="67.2031" y2="67.2031"/><line style="stroke:#181818;stroke-width:0.5;" x1="729" x2="798" y1="75.2031" y2="75.2031"/></g><!--MD5=[6dab8d6effd740bcc4bfc3bd3194e953]
link TD to R--><g id="link_TD_R"><path codeLine="26" d="M84.11,54 C109.34,54 141.92,54 165.86,54 " fill="none" id="TD-R" style="stroke:#181818;stroke-width:1.0;"/><polygon fill="#000000" points="101.5,42.1758,110.5451,45.1147,110.5451,39.2369,101.5,42.1758" style="stroke:#000000;stroke-width:1.0;"/><text fill="#000000" font-family="sans-serif" font-size="13" lengthAdjust="spacing" textLength="32" x="115.5" y="47.4951">reads</text><text fill="#000000" font-family="sans-serif" font-size="13" lengthAdjust="spacing" textLength="5" x="95.8633" y="50.1758">*</text></g><!--MD5=[b6d05c8ba1925f463401f0316ca5edcc]
link R to T--><g id="link_R_T"><path codeLine="27" d="M231.29,54 C267.92,54 327.57,54 369.47,54 " fill="none" id="R-T" style="stroke:#181818;stroke-width:1.0;"/><polygon fill="#000000" points="258.25,42.1758,249.2049,39.2369,249.2049,45.1147,258.25,42.1758" style="stroke:#000000;stroke-width:1.0;"/><text fill="#000000" font-family="sans-serif" font-size="13" lengthAdjust="spacing" textLength="89" x="262.25" y="47.4951">passes content</text></g><!--MD5=[b6d05c8ba1925f463401f0316ca5edcc]
link R to T--><g id="link_R_T"><path codeLine="28" d="M231.16,66.06 C242.57,69.69 255.57,73.19 267.75,75 C296.33,79.24 304.07,78.5 332.75,75 C344.79,73.53 357.58,70.93 369.48,68.05 " fill="none" id="R-T-1" style="stroke:#181818;stroke-width:1.0;"/><polygon fill="#000000" points="267.7505,66.1039,276.7524,69.1726,276.8369,63.2953,267.7505,66.1039" style="stroke:#000000;stroke-width:1.0;"/><text fill="#000000" font-family="sans-serif" font-size="13" lengthAdjust="spacing" textLength="50" x="281.75" y="71.4951">instructs</text></g><!--MD5=[132c2c0a02affa0b066976bef7426022]
link T to D--><g id="link_T_D"><path codeLine="29" d="M465.94,54 C495.86,54 533.6,54 560.8,54 " fill="none" id="T-D" style="stroke:#181818;stroke-width:1.0;"/><polygon fill="#000000" points="492.75,42.1758,483.7049,39.2369,483.7049,45.1147,492.75,42.1758" style="stroke:#000000;stroke-width:1.0;"/><text fill="#000000" font-family="sans-serif" font-size="13" lengthAdjust="spacing" textLength="46" x="496.75" y="47.4951">updates</text></g><!--MD5=[ab16ed5e9bf061fa15a43d6d4cd0279b]
link D to TV--><g id="link_D_TV"><path codeLine="30" d="M632.33,54 C660.5,54 699.57,54 727.73,54 " fill="none" id="D-TV" style="stroke:#181818;stroke-width:1.0;"/><polygon fill="#000000" points="659.5,42.1758,650.4549,39.2369,650.4549,45.1147,659.5,42.1758" style="stroke:#000000;stroke-width:1.0;"/><text fill="#000000" font-family="sans-serif" font-size="13" lengthAdjust="spacing" textLength="46" x="663.5" y="47.4951">updates</text></g><!--MD5=[b91ae1f1d8da15a0a746ab00a6b92e56]
@startuml domain_model
    skinparam classAttributeIconSize 0
    skinparam style strictuml


    class " **TreeData** " as TD <<type>> {

    }

    class " **Reader** " as R <<type>> {

    }

    class "**Displayer**" as D <<type>> {

    }
 
    class "**Tree**" as T <<type>>{
        + LoadData()
        + CloseData()
    }

    class "**TreeView**" as TV <<type>> {

    }

    TD " * " - -right- - R: reads < 
    R - -right- - T: passes content >
    R - -right- - T: instructs <
    T - -right- - D: updates >
    D -right- TV: updates >


@enduml

PlantUML version 1.2022.7(Mon Aug 22 19:01:30 CEST 2022)
(GPL source distribution)
Java Runtime: Java(TM) SE Runtime Environment
JVM: Java HotSpot(TM) 64-Bit Server VM
Default Encoding: Cp1250
Language: cs
Country: CZ
--></g></svg>