<?xml version="1.0" encoding="UTF-8" standalone="no"?><svg xmlns="http://www.w3.org/2000/svg" xmlns:xlink="http://www.w3.org/1999/xlink" contentStyleType="text/css" height="305px" preserveAspectRatio="none" style="width:455px;height:305px;background:#FFFFFF;" version="1.1" viewBox="0 0 455 305" width="455px" zoomAndPan="magnify"><defs/><g><rect fill="#FFFFFF" height="197.3672" style="stroke:#181818;stroke-width:1.0;" width="10" x="137.5" y="92.6094"/><rect fill="none" height="121.6641" style="stroke:#000000;stroke-width:1.5;" width="439" x="10" y="160.3125"/><line style="stroke:#181818;stroke-width:0.5;stroke-dasharray:5.0,5.0;" x1="37" x2="37" y1="82.6094" y2="298.9766"/><line style="stroke:#181818;stroke-width:0.5;stroke-dasharray:5.0,5.0;" x1="142" x2="142" y1="82.6094" y2="298.9766"/><line style="stroke:#181818;stroke-width:0.5;stroke-dasharray:5.0,5.0;" x1="293" x2="293" y1="82.6094" y2="298.9766"/><line style="stroke:#181818;stroke-width:0.5;stroke-dasharray:5.0,5.0;" x1="388" x2="388" y1="240.3203" y2="298.9766"/><text fill="#000000" font-family="sans-serif" font-size="14" lengthAdjust="spacing" textLength="29" x="20" y="79.5332">User</text><ellipse cx="37.5" cy="13.5" fill="#E2E2F0" rx="8" ry="8" style="stroke:#181818;stroke-width:0.5;"/><path d="M37.5,21.5 L37.5,48.5 M24.5,29.5 L50.5,29.5 M37.5,48.5 L24.5,63.5 M37.5,48.5 L50.5,63.5 " fill="none" style="stroke:#181818;stroke-width:0.5;"/><rect fill="#E2E2F0" height="31.6094" rx="2.5" ry="2.5" style="stroke:#181818;stroke-width:0.5;" width="79" x="103" y="50"/><text fill="#000000" font-family="sans-serif" font-size="14" lengthAdjust="spacing" text-decoration="underline" textLength="65" x="110" y="71.5332">: Treeview</text><rect fill="#E2E2F0" height="31.6094" rx="2.5" ry="2.5" style="stroke:#181818;stroke-width:0.5;" width="67" x="260" y="50"/><text fill="#000000" font-family="sans-serif" font-size="14" lengthAdjust="spacing" text-decoration="underline" textLength="53" x="267" y="71.5332">: Branch</text><rect fill="#FFFFFF" height="197.3672" style="stroke:#181818;stroke-width:1.0;" width="10" x="137.5" y="92.6094"/><polygon fill="#181818" points="125.5,110.9609,135.5,114.9609,125.5,118.9609" style="stroke:#181818;stroke-width:1.0;"/><line style="stroke:#181818;stroke-width:1.0;" x1="37.5" x2="131.5" y1="114.9609" y2="114.9609"/><text fill="#000000" font-family="sans-serif" font-size="13" lengthAdjust="spacing" textLength="76" x="44.5" y="110.1045">Select action</text><polygon fill="#181818" points="281.5,141.3125,291.5,145.3125,281.5,149.3125" style="stroke:#181818;stroke-width:1.0;"/><line style="stroke:#181818;stroke-width:1.0;" x1="147.5" x2="287.5" y1="145.3125" y2="145.3125"/><text fill="#000000" font-family="sans-serif" font-size="13" lengthAdjust="spacing" textLength="122" x="154.5" y="140.4561">Call action on branch</text><path d="M10,160.3125 L125,160.3125 L125,168.6641 L115,178.6641 L10,178.6641 L10,160.3125 " fill="#EEEEEE" style="stroke:#000000;stroke-width:1.5;"/><rect fill="none" height="121.6641" style="stroke:#000000;stroke-width:1.5;" width="439" x="10" y="160.3125"/><text fill="#000000" font-family="sans-serif" font-size="13" font-weight="bold" lengthAdjust="spacing" textLength="70" x="25" y="174.8076">Action fails</text><polygon fill="#181818" points="158.5,197.0156,148.5,201.0156,158.5,205.0156" style="stroke:#181818;stroke-width:1.0;"/><line style="stroke:#181818;stroke-width:1.0;" x1="152.5" x2="292.5" y1="201.0156" y2="201.0156"/><text fill="#000000" font-family="sans-serif" font-size="13" lengthAdjust="spacing" textLength="85" x="164.5" y="196.1592">Error message</text><polygon fill="#181818" points="325,227.3672,335,231.3672,325,235.3672" style="stroke:#181818;stroke-width:1.0;"/><line style="stroke:#181818;stroke-width:1.0;" x1="147.5" x2="331" y1="231.3672" y2="231.3672"/><text fill="#000000" font-family="sans-serif" font-size="13" lengthAdjust="spacing" textLength="38" x="154.5" y="226.5107">Create</text><rect fill="#E2E2F0" height="31.6094" rx="2.5" ry="2.5" style="stroke:#181818;stroke-width:0.5;" width="102" x="337" y="209.0156"/><text fill="#000000" font-family="sans-serif" font-size="14" lengthAdjust="spacing" text-decoration="underline" textLength="88" x="344" y="230.5488">: MessageBox</text><polygon fill="#181818" points="376,269.9766,386,273.9766,376,277.9766" style="stroke:#181818;stroke-width:1.0;"/><line style="stroke:#181818;stroke-width:1.0;" x1="37.5" x2="382" y1="273.9766" y2="273.9766"/><text fill="#000000" font-family="sans-serif" font-size="13" lengthAdjust="spacing" textLength="33" x="44.5" y="269.1201">Close</text><line style="stroke:#A80036;stroke-width:2.0;" x1="379" x2="397" y1="264.9766" y2="282.9766"/><line style="stroke:#A80036;stroke-width:2.0;" x1="379" x2="397" y1="282.9766" y2="264.9766"/><!--MD5=[8c437fe0d480d5e2367cf7ce5616e89c]
@startuml error_message_sequence_diagram
skinparam Shadowing false
skinparam Style strictuml

    actor "User" as User
    participant "<u>: Treeview</u>" as Treeview
    activate Treeview
    participant "<u>: Branch</u>" as Branch

    User -> Treeview: Select action
    Treeview -> Branch: Call action on branch
    group Action fails
        Branch -> Treeview: Error message

        participant "<u>: MessageBox</u>" as MessageBox
        create MessageBox

        Treeview -> MessageBox: Create
        User -> MessageBox: Close
        destroy MessageBox
    end
@enduml

PlantUML version 1.2022.7(Mon Aug 22 19:01:30 CEST 2022)
(GPL source distribution)
Java Runtime: Java(TM) SE Runtime Environment
JVM: Java HotSpot(TM) 64-Bit Server VM
Default Encoding: Cp1250
Language: cs
Country: CZ
--></g></svg>