<?xml version="1.0" encoding="UTF-8" standalone="no"?><svg xmlns="http://www.w3.org/2000/svg" xmlns:xlink="http://www.w3.org/1999/xlink" contentStyleType="text/css" height="739px" preserveAspectRatio="none" style="width:709px;height:739px;background:#FFFFFF;" version="1.1" viewBox="0 0 709 739" width="709px" zoomAndPan="magnify"><defs/><g><rect fill="none" height="176.5313" style="stroke:#000000;stroke-width:1.5;" width="399.5" x="10" y="99.6094"/><rect fill="none" height="91.3125" style="stroke:#000000;stroke-width:1.5;" width="469.5" x="91.5" y="315.1406"/><rect fill="none" height="109.4063" style="stroke:#000000;stroke-width:1.5;" width="469.5" x="91.5" y="445.4531"/><rect fill="none" height="121.6641" style="stroke:#000000;stroke-width:1.5;" width="611.5" x="91.5" y="593.8594"/><line style="stroke:#181818;stroke-width:0.5;stroke-dasharray:5.0,5.0;" x1="43" x2="43" y1="149.2656" y2="732.5234"/><line style="stroke:#181818;stroke-width:0.5;stroke-dasharray:5.0,5.0;" x1="118.5" x2="118.5" y1="82.6094" y2="732.5234"/><line style="stroke:#181818;stroke-width:0.5;stroke-dasharray:5.0,5.0;" x1="252" x2="252" y1="191.875" y2="732.5234"/><line style="stroke:#181818;stroke-width:0.5;stroke-dasharray:5.0,5.0;" x1="369.5" x2="369.5" y1="234.4844" y2="732.5234"/><line style="stroke:#181818;stroke-width:0.5;stroke-dasharray:5.0,5.0;" x1="502" x2="502" y1="395.1484" y2="732.5234"/><line style="stroke:#181818;stroke-width:0.5;stroke-dasharray:5.0,5.0;" x1="628" x2="628" y1="704.2188" y2="732.5234"/><text fill="#000000" font-family="sans-serif" font-size="14" lengthAdjust="spacing" textLength="29" x="101.5" y="79.5332">User</text><ellipse cx="119" cy="13.5" fill="#E2E2F0" rx="8" ry="8" style="stroke:#181818;stroke-width:0.5;"/><path d="M119,21.5 L119,48.5 M106,29.5 L132,29.5 M119,48.5 L106,63.5 M119,48.5 L132,63.5 " fill="none" style="stroke:#181818;stroke-width:0.5;"/><path d="M10,99.6094 L113,99.6094 L113,107.9609 L103,117.9609 L10,117.9609 L10,99.6094 " fill="#EEEEEE" style="stroke:#000000;stroke-width:1.5;"/><rect fill="none" height="176.5313" style="stroke:#000000;stroke-width:1.5;" width="399.5" x="10" y="99.6094"/><text fill="#000000" font-family="sans-serif" font-size="13" font-weight="bold" lengthAdjust="spacing" textLength="58" x="25" y="114.1045">Start app</text><polygon fill="#181818" points="78,136.3125,68,140.3125,78,144.3125" style="stroke:#181818;stroke-width:1.0;"/><line style="stroke:#181818;stroke-width:1.0;" x1="72" x2="118" y1="140.3125" y2="140.3125"/><text fill="#000000" font-family="sans-serif" font-size="13" lengthAdjust="spacing" textLength="28" x="84" y="135.4561">Start</text><rect fill="#E2E2F0" height="31.6094" rx="2.5" ry="2.5" style="stroke:#181818;stroke-width:0.5;" width="47" x="20" y="117.9609"/><text fill="#000000" font-family="sans-serif" font-size="14" lengthAdjust="spacing" text-decoration="underline" textLength="29" x="31" y="139.4941">App:</text><polygon fill="#181818" points="201,178.9219,211,182.9219,201,186.9219" style="stroke:#181818;stroke-width:1.0;"/><line style="stroke:#181818;stroke-width:1.0;" x1="43.5" x2="207" y1="182.9219" y2="182.9219"/><text fill="#000000" font-family="sans-serif" font-size="13" lengthAdjust="spacing" textLength="135" x="50.5" y="178.0654">Create, send templates</text><rect fill="#E2E2F0" height="31.6094" rx="2.5" ry="2.5" style="stroke:#181818;stroke-width:0.5;" width="78" x="213" y="160.5703"/><text fill="#000000" font-family="sans-serif" font-size="14" lengthAdjust="spacing" text-decoration="underline" textLength="60" x="224" y="182.1035">Manager:</text><polygon fill="#181818" points="328.5,221.5313,338.5,225.5313,328.5,229.5313" style="stroke:#181818;stroke-width:1.0;"/><line style="stroke:#181818;stroke-width:1.0;" x1="43.5" x2="334.5" y1="225.5313" y2="225.5313"/><text fill="#000000" font-family="sans-serif" font-size="13" lengthAdjust="spacing" textLength="38" x="50.5" y="220.6748">Create</text><rect fill="#E2E2F0" height="31.6094" rx="2.5" ry="2.5" style="stroke:#181818;stroke-width:0.5;" width="59" x="340.5" y="203.1797"/><text fill="#000000" font-family="sans-serif" font-size="14" lengthAdjust="spacing" text-decoration="underline" textLength="41" x="351.5" y="224.7129">Editor:</text><polygon fill="#181818" points="358,264.1406,368,268.1406,358,272.1406" style="stroke:#181818;stroke-width:1.0;"/><line style="stroke:#181818;stroke-width:1.0;" x1="252" x2="364" y1="268.1406" y2="268.1406"/><text fill="#000000" font-family="sans-serif" font-size="13" lengthAdjust="spacing" textLength="76" x="259" y="263.2842">Send actions</text><path d="M91.5,315.1406 L238.5,315.1406 L238.5,323.4922 L228.5,333.4922 L91.5,333.4922 L91.5,315.1406 " fill="#EEEEEE" style="stroke:#000000;stroke-width:1.5;"/><rect fill="none" height="91.3125" style="stroke:#000000;stroke-width:1.5;" width="469.5" x="91.5" y="315.1406"/><text fill="#000000" font-family="sans-serif" font-size="13" font-weight="bold" lengthAdjust="spacing" textLength="102" x="106.5" y="329.6357">Create new tree</text><polygon fill="#181818" points="240,351.8438,250,355.8438,240,359.8438" style="stroke:#181818;stroke-width:1.0;"/><line style="stroke:#181818;stroke-width:1.0;" x1="119" x2="246" y1="355.8438" y2="355.8438"/><text fill="#000000" font-family="sans-serif" font-size="13" lengthAdjust="spacing" textLength="94" x="126" y="350.9873">Ask for new tree</text><polygon fill="#181818" points="441,382.1953,451,386.1953,441,390.1953" style="stroke:#181818;stroke-width:1.0;"/><line style="stroke:#181818;stroke-width:1.0;" x1="252" x2="447" y1="386.1953" y2="386.1953"/><text fill="#000000" font-family="sans-serif" font-size="13" lengthAdjust="spacing" textLength="38" x="259" y="381.3389">Create</text><rect fill="#E2E2F0" height="31.6094" rx="2.5" ry="2.5" style="stroke:#181818;stroke-width:0.5;" width="98" x="453" y="363.8438"/><text fill="#000000" font-family="sans-serif" font-size="14" lengthAdjust="spacing" text-decoration="underline" textLength="76" x="464" y="385.377">Tree:Tree X</text><path d="M91.5,445.4531 L266.5,445.4531 L266.5,453.8047 L256.5,463.8047 L91.5,463.8047 L91.5,445.4531 " fill="#EEEEEE" style="stroke:#000000;stroke-width:1.5;"/><rect fill="none" height="109.4063" style="stroke:#000000;stroke-width:1.5;" width="469.5" x="91.5" y="445.4531"/><text fill="#000000" font-family="sans-serif" font-size="13" font-weight="bold" lengthAdjust="spacing" textLength="130" x="106.5" y="459.9482">Load tree into Editor</text><polygon fill="#181818" points="240,482.1563,250,486.1563,240,490.1563" style="stroke:#181818;stroke-width:1.0;"/><line style="stroke:#181818;stroke-width:1.0;" x1="119" x2="246" y1="486.1563" y2="486.1563"/><text fill="#000000" font-family="sans-serif" font-size="13" lengthAdjust="spacing" textLength="109" x="126" y="481.2998">Ask for tree editing</text><polygon fill="#181818" points="358,512.5078,368,516.5078,358,520.5078" style="stroke:#181818;stroke-width:1.0;"/><line style="stroke:#181818;stroke-width:1.0;" x1="252" x2="364" y1="516.5078" y2="516.5078"/><text fill="#000000" font-family="sans-serif" font-size="13" lengthAdjust="spacing" textLength="94" x="259" y="511.6514">Call for tree load</text><polygon fill="#181818" points="381,542.8594,371,546.8594,381,550.8594" style="stroke:#181818;stroke-width:1.0;"/><line style="stroke:#181818;stroke-width:1.0;" x1="375" x2="501" y1="546.8594" y2="546.8594"/><text fill="#000000" font-family="sans-serif" font-size="13" lengthAdjust="spacing" textLength="89" x="387" y="542.0029">Load into editor</text><path d="M91.5,593.8594 L285.5,593.8594 L285.5,602.2109 L275.5,612.2109 L91.5,612.2109 L91.5,593.8594 " fill="#EEEEEE" style="stroke:#000000;stroke-width:1.5;"/><rect fill="none" height="121.6641" style="stroke:#000000;stroke-width:1.5;" width="611.5" x="91.5" y="593.8594"/><text fill="#000000" font-family="sans-serif" font-size="13" font-weight="bold" lengthAdjust="spacing" textLength="149" x="106.5" y="608.3545">Add new branch to tree</text><polygon fill="#181818" points="358,630.5625,368,634.5625,358,638.5625" style="stroke:#181818;stroke-width:1.0;"/><line style="stroke:#181818;stroke-width:1.0;" x1="119" x2="364" y1="634.5625" y2="634.5625"/><text fill="#000000" font-family="sans-serif" font-size="13" lengthAdjust="spacing" textLength="111" x="126" y="629.7061">Ask for new branch</text><polygon fill="#181818" points="490,660.9141,500,664.9141,490,668.9141" style="stroke:#181818;stroke-width:1.0;"/><line style="stroke:#181818;stroke-width:1.0;" x1="370" x2="496" y1="664.9141" y2="664.9141"/><text fill="#000000" font-family="sans-serif" font-size="13" lengthAdjust="spacing" textLength="108" x="377" y="660.0576">Create new branch</text><polygon fill="#181818" points="552,691.2656,562,695.2656,552,699.2656" style="stroke:#181818;stroke-width:1.0;"/><line style="stroke:#181818;stroke-width:1.0;" x1="502" x2="558" y1="695.2656" y2="695.2656"/><text fill="#000000" font-family="sans-serif" font-size="13" lengthAdjust="spacing" textLength="38" x="509" y="690.4092">Create</text><rect fill="#E2E2F0" height="31.6094" rx="2.5" ry="2.5" style="stroke:#181818;stroke-width:0.5;" width="129" x="564" y="672.9141"/><text fill="#000000" font-family="sans-serif" font-size="14" lengthAdjust="spacing" text-decoration="underline" textLength="107" x="575" y="694.4473">Branch:Branch A</text><!--MD5=[1369e2d5361c9e4fc71b1940e988b7fe]
@startuml treeitem_template_sequence_diagram
skinparam Style strictuml

    actor User order 1

    group Start app
    create participant "<u> App:</u>" as App order 0
    User -> App: Start
    create participant "<u> Manager:</u>" as Manager order 2
    App -> Manager: Create, send templates
    create participant "<u> Editor:</u>" as Editor order 3
    App -> Editor: Create
    Manager -> Editor: Send actions
    end
    |||

    group Create new tree
    User -> Manager: Ask for new tree
    create "<u> Tree:Tree X </u>" as TreeX order 4
    Manager -> TreeX: Create
    end
    |||
    group Load tree into Editor
        User -> Manager: Ask for tree editing
        Manager -> Editor: Call for tree load
        TreeX -> Editor: Load into editor
    end
    |||
    group Add new branch to tree
        User -> Editor: Ask for new branch
        Editor -> TreeX: Create new branch
        create "<u> Branch:Branch A </u>" as BranchA order 5
        TreeX -> BranchA: Create
    end



@enduml

PlantUML version 1.2022.7(Mon Aug 22 19:01:30 CEST 2022)
(GPL source distribution)
Java Runtime: Java(TM) SE Runtime Environment
JVM: Java HotSpot(TM) 64-Bit Server VM
Default Encoding: Cp1250
Language: cs
Country: CZ
--></g></svg>